<svg width="42" height="43" viewBox="0 0 42 43" fill="none" xmlns="http://www.w3.org/2000/svg">
<rect width="42" height="43" rx="5" fill="#E7F4EF"/>
<g clip-path="url(#clip0_683_3160)">
<path d="M21 21C19.9 21 18.9583 20.6083 18.175 19.825C17.3917 19.0417 17 18.1 17 17C17 15.9 17.3917 14.9583 18.175 14.175C18.9583 13.3917 19.9 13 21 13C22.1 13 23.0417 13.3917 23.825 14.175C24.6083 14.9583 25 15.9 25 17C25 18.1 24.6083 19.0417 23.825 19.825C23.0417 20.6083 22.1 21 21 21ZM13 29V26.2C13 25.6333 13.1458 25.1125 13.4375 24.6375C13.7292 24.1625 14.1167 23.8 14.6 23.55C15.6333 23.0333 16.6833 22.6458 17.75 22.3875C18.8167 22.1292 19.9 22 21 22C22.1 22 23.1833 22.1292 24.25 22.3875C25.3167 22.6458 26.3667 23.0333 27.4 23.55C27.8833 23.8 28.2708 24.1625 28.5625 24.6375C28.8542 25.1125 29 25.6333 29 26.2V29H13ZM15 27H27V26.2C27 26.0167 26.9542 25.85 26.8625 25.7C26.7708 25.55 26.65 25.4333 26.5 25.35C25.6 24.9 24.6917 24.5625 23.775 24.3375C22.8583 24.1125 21.9333 24 21 24C20.0667 24 19.1417 24.1125 18.225 24.3375C17.3083 24.5625 16.4 24.9 15.5 25.35C15.35 25.4333 15.2292 25.55 15.1375 25.7C15.0458 25.85 15 26.0167 15 26.2V27ZM21 19C21.55 19 22.0208 18.8042 22.4125 18.4125C22.8042 18.0208 23 17.55 23 17C23 16.45 22.8042 15.9792 22.4125 15.5875C22.0208 15.1958 21.55 15 21 15C20.45 15 19.9792 15.1958 19.5875 15.5875C19.1958 15.9792 19 16.45 19 17C19 17.55 19.1958 18.0208 19.5875 18.4125C19.9792 18.8042 20.45 19 21 19Z" fill="#51A8B1"/>
</g>
<defs>
<clipPath id="clip0_683_3160">
<rect width="24" height="24" fill="white" transform="translate(9 9)"/>
</clipPath>
</defs>
</svg>
