<svg width="42" height="43" viewBox="0 0 42 43" fill="none" xmlns="http://www.w3.org/2000/svg">
<rect width="42" height="43" rx="5" fill="#E7F4EF"/>
<path d="M14 31C13.45 31 12.9792 30.8042 12.5875 30.4125C12.1958 30.0208 12 29.55 12 29V15C12 14.45 12.1958 13.9792 12.5875 13.5875C12.9792 13.1958 13.45 13 14 13H15V11H17V13H25V11H27V13H28C28.55 13 29.0208 13.1958 29.4125 13.5875C29.8042 13.9792 30 14.45 30 15V29C30 29.55 29.8042 30.0208 29.4125 30.4125C29.0208 30.8042 28.55 31 28 31H14ZM14 29H28V19H14V29ZM14 17H28V15H14V17ZM21 23C20.7167 23 20.4792 22.9042 20.2875 22.7125C20.0958 22.5208 20 22.2833 20 22C20 21.7167 20.0958 21.4792 20.2875 21.2875C20.4792 21.0958 20.7167 21 21 21C21.2833 21 21.5208 21.0958 21.7125 21.2875C21.9042 21.4792 22 21.7167 22 22C22 22.2833 21.9042 22.5208 21.7125 22.7125C21.5208 22.9042 21.2833 23 21 23ZM17 23C16.7167 23 16.4792 22.9042 16.2875 22.7125C16.0958 22.5208 16 22.2833 16 22C16 21.7167 16.0958 21.4792 16.2875 21.2875C16.4792 21.0958 16.7167 21 17 21C17.2833 21 17.5208 21.0958 17.7125 21.2875C17.9042 21.4792 18 21.7167 18 22C18 22.2833 17.9042 22.5208 17.7125 22.7125C17.5208 22.9042 17.2833 23 17 23ZM25 23C24.7167 23 24.4792 22.9042 24.2875 22.7125C24.0958 22.5208 24 22.2833 24 22C24 21.7167 24.0958 21.4792 24.2875 21.2875C24.4792 21.0958 24.7167 21 25 21C25.2833 21 25.5208 21.0958 25.7125 21.2875C25.9042 21.4792 26 21.7167 26 22C26 22.2833 25.9042 22.5208 25.7125 22.7125C25.5208 22.9042 25.2833 23 25 23ZM21 27C20.7167 27 20.4792 26.9042 20.2875 26.7125C20.0958 26.5208 20 26.2833 20 26C20 25.7167 20.0958 25.4792 20.2875 25.2875C20.4792 25.0958 20.7167 25 21 25C21.2833 25 21.5208 25.0958 21.7125 25.2875C21.9042 25.4792 22 25.7167 22 26C22 26.2833 21.9042 26.5208 21.7125 26.7125C21.5208 26.9042 21.2833 27 21 27ZM17 27C16.7167 27 16.4792 26.9042 16.2875 26.7125C16.0958 26.5208 16 26.2833 16 26C16 25.7167 16.0958 25.4792 16.2875 25.2875C16.4792 25.0958 16.7167 25 17 25C17.2833 25 17.5208 25.0958 17.7125 25.2875C17.9042 25.4792 18 25.7167 18 26C18 26.2833 17.9042 26.5208 17.7125 26.7125C17.5208 26.9042 17.2833 27 17 27ZM25 27C24.7167 27 24.4792 26.9042 24.2875 26.7125C24.0958 26.5208 24 26.2833 24 26C24 25.7167 24.0958 25.4792 24.2875 25.2875C24.4792 25.0958 24.7167 25 25 25C25.2833 25 25.5208 25.0958 25.7125 25.2875C25.9042 25.4792 26 25.7167 26 26C26 26.2833 25.9042 26.5208 25.7125 26.7125C25.5208 26.9042 25.2833 27 25 27Z" fill="#51A8B1"/>
</svg>
