<svg width="42" height="43" viewBox="0 0 42 43" fill="none" xmlns="http://www.w3.org/2000/svg">
<rect width="42" height="43" rx="5" fill="#E9FFDC"/>
<g clip-path="url(#clip0_1853_5471)">
<path d="M14.8333 10C13.2706 10 12 11.2893 12 12.875V30.125C12 31.7107 13.2706 33 14.8333 33H26.1667C27.7294 33 29 31.7107 29 30.125V12.875C29 11.2893 27.7294 10 26.1667 10H14.8333ZM19.0833 24.375H21.9167C23.8734 24.375 25.4583 25.9832 25.4583 27.9688C25.4583 28.3641 25.1396 28.6875 24.75 28.6875H16.25C15.8604 28.6875 15.5417 28.3641 15.5417 27.9688C15.5417 25.9832 17.1266 24.375 19.0833 24.375ZM17.6667 20.0625C17.6667 19.3 17.9652 18.5687 18.4965 18.0296C19.0279 17.4904 19.7486 17.1875 20.5 17.1875C21.2514 17.1875 21.9721 17.4904 22.5035 18.0296C23.0348 18.5687 23.3333 19.3 23.3333 20.0625C23.3333 20.825 23.0348 21.5563 22.5035 22.0954C21.9721 22.6346 21.2514 22.9375 20.5 22.9375C19.7486 22.9375 19.0279 22.6346 18.4965 22.0954C17.9652 21.5563 17.6667 20.825 17.6667 20.0625ZM18.375 12.875H22.625C23.0146 12.875 23.3333 13.1984 23.3333 13.5938C23.3333 13.9891 23.0146 14.3125 22.625 14.3125H18.375C17.9854 14.3125 17.6667 13.9891 17.6667 13.5938C17.6667 13.1984 17.9854 12.875 18.375 12.875Z" fill="#76F443"/>
</g>
<defs>
<clipPath id="clip0_1853_5471">
<rect width="17" height="23" fill="white" transform="translate(12 10)"/>
</clipPath>
</defs>
</svg>
