<svg width="42" height="43" viewBox="0 0 42 43" fill="none" xmlns="http://www.w3.org/2000/svg">
<rect width="42" height="43" rx="5" fill="#FBDCD5"/>
<path d="M14 31C13.45 31 12.9792 30.8042 12.5875 30.4125C12.1958 30.0208 12 29.55 12 29V15C12 14.45 12.1958 13.9792 12.5875 13.5875C12.9792 13.1958 13.45 13 14 13H15V11H17V13H25V11H27V13H28C28.55 13 29.0208 13.1958 29.4125 13.5875C29.8042 13.9792 30 14.45 30 15V29C30 29.55 29.8042 30.0208 29.4125 30.4125C29.0208 30.8042 28.55 31 28 31H14ZM14 29H28V19H14V29ZM14 17H28V15H14V17Z" fill="#EC2B26"/>
<path d="M21.0003 27.75C20.7712 27.75 20.575 27.6684 20.4118 27.5052C20.2486 27.342 20.167 27.1458 20.167 26.9167C20.167 26.6875 20.2486 26.4913 20.4118 26.3281C20.575 26.1649 20.7712 26.0833 21.0003 26.0833C21.2295 26.0833 21.4257 26.1649 21.5889 26.3281C21.7521 26.4913 21.8337 26.6875 21.8337 26.9167C21.8337 27.1458 21.7521 27.342 21.5889 27.5052C21.4257 27.6684 21.2295 27.75 21.0003 27.75ZM20.167 25.25V20.25H21.8337V25.25H20.167Z" fill="#EC2B26"/>
</svg>
