<svg width="42" height="43" viewBox="0 0 42 43" fill="none" xmlns="http://www.w3.org/2000/svg">
<rect width="42" height="43" rx="5" fill="#E9FFDC"/>
<path d="M19.95 27.35L16.4 23.8L17.85 22.35L19.95 24.45L24.15 20.25L25.6 21.7L19.95 27.35ZM14 31C13.45 31 12.9792 30.8042 12.5875 30.4125C12.1958 30.0208 12 29.55 12 29V15C12 14.45 12.1958 13.9792 12.5875 13.5875C12.9792 13.1958 13.45 13 14 13H15V11H17V13H25V11H27V13H28C28.55 13 29.0208 13.1958 29.4125 13.5875C29.8042 13.9792 30 14.45 30 15V29C30 29.55 29.8042 30.0208 29.4125 30.4125C29.0208 30.8042 28.55 31 28 31H14ZM14 29H28V19H14V29ZM14 17H28V15H14V17Z" fill="#76F443"/>
</svg>
