<svg width="42" height="43" viewBox="0 0 42 43" fill="none" xmlns="http://www.w3.org/2000/svg">
<rect width="42" height="43" rx="5" fill="#FEF2D8"/>
<g clip-path="url(#clip0_683_3170)">
<path d="M12 30V16H16V12H26V20H30V30H22V26H20V30H12ZM14 28H16V26H14V28ZM14 24H16V22H14V24ZM14 20H16V18H14V20ZM18 24H20V22H18V24ZM18 20H20V18H18V20ZM18 16H20V14H18V16ZM22 24H24V22H22V24ZM22 20H24V18H22V20ZM22 16H24V14H22V16ZM26 28H28V26H26V28ZM26 24H28V22H26V24Z" fill="#F5B114"/>
</g>
<defs>
<clipPath id="clip0_683_3170">
<rect width="24" height="24" fill="white" transform="translate(9 9)"/>
</clipPath>
</defs>
</svg>
