<svg width="42" height="43" viewBox="0 0 42 43" fill="none" xmlns="http://www.w3.org/2000/svg">
<rect width="42" height="43" rx="5" fill="#CCF3FF"/>
<rect width="24" height="24" transform="translate(9 9)" fill="#CCF3FF"/>
<path d="M11 30V12H21V16H31V30H11ZM13 28H15V26H13V28ZM13 24H15V22H13V24ZM13 20H15V18H13V20ZM13 16H15V14H13V16ZM17 28H19V26H17V28ZM17 24H19V22H17V24ZM17 20H19V18H17V20ZM17 16H19V14H17V16ZM21 28H29V18H21V20H23V22H21V24H23V26H21V28ZM25 22V20H27V22H25ZM25 26V24H27V26H25Z" fill="#0F5FC2"/>
</svg>
